<svg width="200" height="200" viewBox="0 0 200 200" fill="none" xmlns="http://www.w3.org/2000/svg">
  <path d="M100 0C44.8 0 0 44.8 0 100s44.8 100 100 100 100-44.8 100-100S155.2 0 100 0z" fill="#87CEEB"/>
  <path d="M60 80h80v40H60z" fill="#1E3050"/>
  <path d="M70 90h20v20H70zM110 90h20v20h-20z" fill="#FFF"/>
  <path d="M100 140c27.6 0 50-5.4 50-12s-22.4-12-50-12-50 5.4-50 12 22.4 12 50 12z" fill="#1E3050"/>
  <path d="M30 70c0-11 9-20 20-20h100c11 0 20 9 20 20v0c0 11-9 20-20 20H50c-11 0-20-9-20-20v0z" fill="#87CEEB"/>
</svg> 